# xmcd
#
# Track frame offsets:
#	150
#	17452
#	34502
#	54482
#	73505
#	90202
#	105537
#	121940
#	137245
#	155820
#	168942
#	186440
#	204520
#	221947
#	226117
#
# Disc length: 3248 seconds
#
# Revision: 0
# Processed by: cddbd v1.4PL0 Copyright (c) Steve Scherf et al.
# Submitted via: dBpowerAMP V4.0
#
DISCID=c60cae0f
DTITLE=Last Train Home - Travelogue
DYEAR=2002
DGENRE=Country
TTITLE0=Louisiana
TTITLE1=All Eyes Go
TTITLE2=Tonight
TTITLE3=Doughnut Girl
TTITLE4=True North
TTITLE5=My Sally
TTITLE6=Sugar
TTITLE7=Never Been To Memphis
TTITLE8=Angelina
TTITLE9=Sentimantal Value
TTITLE10=Loving Arms
TTITLE11=Long Time Gone
TTITLE12=So Long Baby, Goodbye
TTITLE13=Intro
TTITLE14=Everybody's Talking
EXTD=
EXTT0=
EXTT1=
EXTT2=
EXTT3=
EXTT4=
EXTT5=
EXTT6=
EXTT7=
EXTT8=
EXTT9=
EXTT10=
EXTT11=
EXTT12=
EXTT13=
EXTT14=
PLAYORDER=
